<svg width="72" height="51" viewBox="0 0 72 51" fill="none" xmlns="http://www.w3.org/2000/svg">
<path d="M35.9996 22.7447L28.2391 14.8346L21.4487 21.8658L29.1014 29.6661H29.317L35.9996 22.7447Z" fill="#191A1D"/>
<path d="M13.6885 0.00338936H0L14.5508 14.8349L21.449 7.91353L13.6885 0.00338936Z" fill="#191A1D"/>
<path d="M42.8861 -2.58961e-06L36.0269 6.99157L43.8007 14.9153L50.6599 7.92378L42.8861 -2.58961e-06Z" fill="#191A1D"/>
<path d="M58.2029 29.6661H71.8915L57.4485 14.8346L50.6581 21.8658L58.2029 29.6661Z" fill="#191A1D"/>
<path d="M42.8979 0.00304794H29.2094L21.449 7.91319L14.5508 14.8346L0.107758 29.6661H13.7963L21.449 21.8658L28.2393 14.8346L35.9998 6.92442L42.8979 0.00304794Z" fill="#FA2527"/>
<path d="M58.4188 0.00304794L50.6584 7.91319L43.7602 14.8346L35.9998 22.7447L29.3172 29.6661H42.6824H43.0058L50.6584 21.8658L57.4488 14.8346L71.9996 0.00304794H58.4188Z" fill="#FB7D20"/>
<g clip-path="url(#clip0_605_159)">
<path d="M32.5385 41.101H28.9312L26.7449 43.7172L24.4858 41.101H20.915L24.9231 45.7677L20.8785 50.6465H24.4858L26.7449 47.7475L28.9312 50.6465H32.5749L28.5304 45.7677L32.5385 41.101Z" fill="#191A1D"/>
<path d="M41.3198 45.7677L45.3279 41.101H41.7206L39.5344 43.7172L37.3117 41.101H33.7045L37.7125 45.7677L33.668 50.6465H37.3117L39.5344 47.7475L41.7206 50.6465H45.3644L41.3198 45.7677Z" fill="#191A1D"/>
<path d="M49.8461 37.2475C49.5547 37.0707 49.2632 37 48.8988 37C48.3887 37 47.915 37.1768 47.5506 37.5303C47.1862 37.8838 47.004 38.3081 47.004 38.803C47.004 39.2626 47.1862 39.6869 47.5506 40.0404C47.915 40.3939 48.3522 40.6061 48.8988 40.6061C49.2267 40.6061 49.5547 40.5354 49.8461 40.3586C50.1012 40.1818 50.3563 39.9697 50.502 39.7222C50.6842 39.4394 50.7571 39.1566 50.7571 38.8384C50.7571 38.5202 50.6842 38.202 50.502 37.9192C50.3563 37.6364 50.1012 37.4242 49.8461 37.2475Z" fill="#191A1D"/>
<path d="M46.2753 43.7879H47.6599V50.7525H50.502V41.2071H46.2753V43.7879Z" fill="#191A1D"/>
<path d="M60.5587 42.4798C60.085 42.0202 59.5385 41.6667 58.919 41.4192C58.2996 41.1717 57.6073 41.0303 56.8785 41.0303C56.1498 41.0303 55.4575 41.1717 54.8381 41.4192C54.2186 41.6667 53.6721 42.0556 53.1984 42.4798C52.7247 42.9394 52.3603 43.4697 52.1053 44.0707C51.8502 44.6717 51.7044 45.3081 51.7044 45.9798C51.7044 46.6515 51.8502 47.3232 52.1053 47.9242C52.3603 48.5253 52.7247 49.0556 53.1984 49.5152C53.6721 49.9747 54.2186 50.3283 54.8381 50.5758C55.4575 50.8232 56.1498 50.9646 56.8785 50.9646C57.6073 50.9646 58.2631 50.8232 58.919 50.5758C59.5385 50.3283 60.085 49.9747 60.5587 49.5152C61.0324 49.0556 61.3968 48.5253 61.6518 47.9242C61.9069 47.3232 62.0526 46.6869 62.0526 45.9798C62.0526 45.3081 61.9069 44.6717 61.6518 44.0707C61.3968 43.4697 61.0324 42.9394 60.5587 42.4798ZM59.1376 46.0152C59.1376 46.4747 59.0283 46.8283 58.8461 47.1818C58.664 47.5354 58.4089 47.7828 58.0445 47.995C57.7166 48.2071 57.3158 48.2778 56.8785 48.2778C56.4413 48.2778 56.0769 48.1717 55.7125 47.995C55.3846 47.7828 55.1295 47.5354 54.9109 47.1818C54.7287 46.8283 54.6194 46.4394 54.6194 46.0152C54.6194 45.5556 54.7287 45.1667 54.9109 44.8131C55.0931 44.4596 55.3482 44.2121 55.7125 44C56.0405 43.7879 56.4413 43.7172 56.8785 43.7172C57.3158 43.7172 57.7166 43.8232 58.0445 44C58.3725 44.2121 58.6275 44.4596 58.8461 44.8131C59.0648 45.1667 59.1376 45.5556 59.1376 46.0152Z" fill="#191A1D"/>
<path d="M71.5263 42.8333C71.1984 42.2323 70.7247 41.7727 70.1417 41.4545C69.5587 41.1717 68.9393 40.9949 68.2834 40.9949C67.8097 40.9949 67.3725 41.101 66.9352 41.2778C66.6073 41.4192 66.3158 41.5606 66.0607 41.7727V41.2071H63.2186V50.7525H66.0607V44.8838C66.3158 44.601 66.6073 44.3182 66.9352 44.0707C67.2632 43.8232 67.5547 43.7172 67.8826 43.7172C68.3563 43.7172 68.6478 43.8232 68.8664 44.0354C69.085 44.2828 69.1943 44.6717 69.1943 45.202V50.7172H72.0364V45.0253C72 44.1768 71.8542 43.4343 71.5263 42.8333Z" fill="#191A1D"/>
<path d="M19.0567 37.2475C18.7652 37.0707 18.4372 37 18.1093 37C17.5992 37 17.1255 37.1768 16.7611 37.5303C16.3968 37.8838 16.2146 38.3081 16.2146 38.803C16.2146 39.2626 16.3968 39.6869 16.7611 40.0404C17.1255 40.3939 17.5628 40.6061 18.1093 40.6061C18.4372 40.6061 18.7652 40.5354 19.0567 40.3586C19.3117 40.1818 19.5304 39.9697 19.7126 39.6869C19.8947 39.404 19.9676 39.1212 19.9676 38.803C19.9676 38.4848 19.8947 38.1667 19.7126 37.8838C19.5304 37.6364 19.3117 37.4242 19.0567 37.2475Z" fill="#191A1D"/>
<path d="M15.4858 43.7879H16.8704V50.7525H19.7125V41.2071H15.4858V43.7879Z" fill="#191A1D"/>
<path d="M3.1336 37.6717C2.58704 37.9545 2.1498 38.3434 1.8583 38.8737C1.53036 39.404 1.38462 40.0404 1.38462 40.8182V41.2424H0V43.8232H1.34818V50.7879H4.19028V43.7525H6.63158V41.1717H4.19028V40.8889C4.19028 40.3586 4.2996 40.1465 4.40891 40.0758C4.48178 40.0051 4.66397 39.8636 4.9919 39.8636C5.17409 39.8636 6.01215 39.8636 6.30364 39.8636H6.8502V37.2828H4.95547C4.33603 37.2828 3.60729 37.4242 3.1336 37.6717Z" fill="#191A1D"/>
<path d="M10.749 41.702V41.2071H7.90688V50.7525H10.749V46.404C10.749 45.697 10.8947 45.0606 11.1498 44.601C11.4049 44.1061 11.9514 43.8232 12.5344 43.8232H14.2105V41.2424H11.915C11.4777 41.2424 11.0769 41.4192 10.749 41.702Z" fill="#191A1D"/>
</g>
<defs>
<clipPath id="clip0_605_159">
<rect width="72" height="14" fill="white" transform="translate(0 37)"/>
</clipPath>
</defs>
</svg>
