<svg width="72" height="51" viewBox="0 0 72 51" fill="none" xmlns="http://www.w3.org/2000/svg">
<path d="M35.9995 22.7451L28.2391 14.835L21.4487 21.8662L29.1014 29.6665H29.3169L35.9995 22.7451Z" fill="white"/>
<path d="M13.6885 0.00292969H0L14.5508 14.8344L21.449 7.91307L13.6885 0.00292969Z" fill="white"/>
<path d="M42.8861 -0.000361171L36.0269 6.99121L43.8007 14.915L50.6599 7.92342L42.8861 -0.000361171Z" fill="white"/>
<path d="M58.2031 29.6665H71.8916L57.4486 14.835L50.6582 21.8662L58.2031 29.6665Z" fill="white"/>
<path d="M42.8981 0.00292969H29.2095L21.4491 7.91307L14.5509 14.8344L0.10791 29.6659H13.7965L21.4491 21.8657L28.2395 14.8344L35.9999 6.9243L42.8981 0.00292969Z" fill="#FA2527"/>
<path d="M58.419 0.00292969L50.6586 7.91307L43.7604 14.8344L36 22.7446L29.3174 29.6659H42.6826H43.0059L50.6586 21.8657L57.449 14.8344L71.9998 0.00292969H58.419Z" fill="#FB7D20"/>
<g clip-path="url(#clip0_664_792)">
<path d="M32.5383 41.1006H28.9311L26.7448 43.7167L24.4857 41.1006H20.9149L24.923 45.7673L20.8784 50.646H24.4857L26.7448 47.7471L28.9311 50.646H32.5748L28.5302 45.7673L32.5383 41.1006Z" fill="white"/>
<path d="M41.3198 45.7673L45.3279 41.1006H41.7206L39.5344 43.7167L37.3117 41.1006H33.7044L37.7125 45.7673L33.668 50.646H37.3117L39.5344 47.7471L41.7206 50.646H45.3643L41.3198 45.7673Z" fill="white"/>
<path d="M49.846 37.2475C49.5545 37.0707 49.263 37 48.8986 37C48.3885 37 47.9148 37.1768 47.5505 37.5303C47.1861 37.8838 47.0039 38.3081 47.0039 38.803C47.0039 39.2626 47.1861 39.6869 47.5505 40.0404C47.9148 40.3939 48.3521 40.6061 48.8986 40.6061C49.2266 40.6061 49.5545 40.5354 49.846 40.3586C50.1011 40.1818 50.3561 39.9697 50.5019 39.7222C50.6841 39.4394 50.7569 39.1566 50.7569 38.8384C50.7569 38.5202 50.6841 38.202 50.5019 37.9192C50.3561 37.6364 50.1011 37.4242 49.846 37.2475Z" fill="white"/>
<path d="M46.2754 43.7878H47.66V50.7525H50.5021V41.207H46.2754V43.7878Z" fill="white"/>
<path d="M60.5588 42.4798C60.0852 42.0202 59.5386 41.6666 58.9192 41.4192C58.2997 41.1717 57.6074 41.0303 56.8787 41.0303C56.1499 41.0303 55.4576 41.1717 54.8382 41.4192C54.2188 41.6666 53.6722 42.0555 53.1985 42.4798C52.7248 42.9394 52.3605 43.4697 52.1054 44.0707C51.8503 44.6717 51.7046 45.3081 51.7046 45.9798C51.7046 46.6515 51.8503 47.3232 52.1054 47.9242C52.3605 48.5252 52.7248 49.0555 53.1985 49.5151C53.6722 49.9747 54.2188 50.3283 54.8382 50.5757C55.4576 50.8232 56.1499 50.9646 56.8787 50.9646C57.6074 50.9646 58.2633 50.8232 58.9192 50.5757C59.5386 50.3283 60.0852 49.9747 60.5588 49.5151C61.0325 49.0555 61.3969 48.5252 61.652 47.9242C61.907 47.3232 62.0528 46.6868 62.0528 45.9798C62.0528 45.3081 61.907 44.6717 61.652 44.0707C61.3969 43.4697 61.0325 42.9394 60.5588 42.4798ZM59.1378 46.0151C59.1378 46.4747 59.0285 46.8283 58.8463 47.1818C58.6641 47.5353 58.409 47.7828 58.0447 47.9949C57.7167 48.207 57.3159 48.2777 56.8787 48.2777C56.4414 48.2777 56.0771 48.1717 55.7127 47.9949C55.3848 47.7828 55.1297 47.5353 54.9111 47.1818C54.7289 46.8283 54.6196 46.4394 54.6196 46.0151C54.6196 45.5555 54.7289 45.1666 54.9111 44.8131C55.0933 44.4596 55.3483 44.2121 55.7127 44C56.0406 43.7878 56.4414 43.7171 56.8787 43.7171C57.3159 43.7171 57.7167 43.8232 58.0447 44C58.3726 44.2121 58.6277 44.4596 58.8463 44.8131C59.0649 45.1666 59.1378 45.5555 59.1378 46.0151Z" fill="white"/>
<path d="M71.5264 42.8335C71.1985 42.2325 70.7248 41.7729 70.1418 41.4547C69.5588 41.1719 68.9394 40.9951 68.2835 40.9951C67.8098 40.9951 67.3726 41.1012 66.9353 41.2779C66.6074 41.4194 66.3159 41.5608 66.0609 41.7729V41.2072H63.2188V50.7527H66.0609V44.884C66.3159 44.6012 66.6074 44.3183 66.9353 44.0709C67.2633 43.8234 67.5548 43.7173 67.8827 43.7173C68.3564 43.7173 68.6479 43.8234 68.8665 44.0355C69.0851 44.283 69.1945 44.6719 69.1945 45.2022V50.7173H72.0366V45.0254C72.0001 44.1769 71.8544 43.4345 71.5264 42.8335Z" fill="white"/>
<path d="M19.0565 37.2475C18.765 37.0707 18.437 37 18.1091 37C17.599 37 17.1253 37.1768 16.7609 37.5303C16.3965 37.8838 16.2144 38.3081 16.2144 38.803C16.2144 39.2626 16.3965 39.6869 16.7609 40.0404C17.1253 40.3939 17.5625 40.6061 18.1091 40.6061C18.437 40.6061 18.765 40.5354 19.0565 40.3586C19.3115 40.1818 19.5301 39.9697 19.7123 39.6869C19.8945 39.404 19.9674 39.1212 19.9674 38.803C19.9674 38.4848 19.8945 38.1667 19.7123 37.8838C19.5301 37.6364 19.3115 37.4242 19.0565 37.2475Z" fill="white"/>
<path d="M15.4858 43.7878H16.8705V50.7525H19.7126V41.207H15.4858V43.7878Z" fill="white"/>
<path d="M3.1336 37.6721C2.58704 37.9549 2.1498 38.3438 1.8583 38.8741C1.53036 39.4044 1.38462 40.0408 1.38462 40.8186V41.2428H0V43.8236H1.34818V50.7883H4.19028V43.7529H6.63158V41.1721H4.19028V40.8893C4.19028 40.359 4.2996 40.1468 4.40891 40.0761C4.48178 40.0054 4.66397 39.864 4.9919 39.864C5.17409 39.864 6.01215 39.864 6.30364 39.864H6.8502V37.2832H4.95547C4.33603 37.2832 3.60729 37.4246 3.1336 37.6721Z" fill="white"/>
<path d="M10.7488 41.702V41.207H7.90674V50.7525H10.7488V46.404C10.7488 45.6969 10.8946 45.0606 11.1497 44.601C11.4047 44.106 11.9513 43.8232 12.5343 43.8232H14.2104V41.2424H11.9148C11.4776 41.2424 11.0768 41.4192 10.7488 41.702Z" fill="white"/>
</g>
<defs>
<clipPath id="clip0_664_792">
<rect width="72" height="14" fill="white" transform="translate(0 37)"/>
</clipPath>
</defs>
</svg>
