<svg width="93" height="82" viewBox="0 0 93 82" fill="none" xmlns="http://www.w3.org/2000/svg">
<g clip-path="url(#clip0_605_12341)">
<path d="M85.5554 65.528L17.9818 65.4587L2.36197 79.7185L2.46327 9.2814L85.642 9.3563L85.5554 65.528Z" fill="#191A1D"/>
<path d="M90.3416 57.8026L23.3838 57.7472L7.91071 71.4633L8.02493 3.80189L90.4092 3.87355L90.3416 57.8026Z" fill="white"/>
<path d="M7.9457 72.0217C7.86911 72.0263 7.76546 72.007 7.68582 71.9609C7.47547 71.8716 7.36115 71.6747 7.34744 71.4463L7.46318 3.81023C7.45404 3.65794 7.52301 3.52644 7.61904 3.41879C7.74061 3.3096 7.89075 3.24964 8.01841 3.24197L90.4026 3.31363C90.7105 3.32062 90.9556 3.56063 90.9739 3.8652L90.8808 57.7958C90.89 57.948 90.821 58.0795 90.7249 58.1872C90.6289 58.2949 90.4788 58.3548 90.324 58.3386L23.596 58.2694L8.29553 71.8733C8.19797 71.9556 8.07336 72.014 7.9457 72.0217ZM8.59761 4.35345L8.50285 70.2052L23.0275 57.3356C23.125 57.2534 23.2752 57.1934 23.4028 57.1857L89.7719 57.251L89.8554 4.4418L8.59761 4.35345Z" fill="#191A1D"/>
<path d="M68.5751 35.8532C70.3429 35.8489 71.77 34.4387 71.767 32.6812C71.764 30.9238 70.3464 29.5061 68.5771 29.4849L66.3227 29.4929C68.0905 29.4887 69.5176 28.0784 69.5146 26.321C69.5116 24.5636 68.094 23.1459 66.3247 23.1247L56.7153 23.1158L47.4855 24.3068C48.7453 20.5377 49.3296 17.0383 49.3216 13.0651L49.3274 12.7336C49.3274 11.027 47.9114 9.63462 46.1436 9.63886C44.3758 9.64311 42.9472 11.028 42.9471 12.7346L41.7962 17.4652L36.6757 25.6436L36.6414 48.5453L56.6547 48.5663L65.1362 48.5666C66.9039 48.5623 68.3311 47.1521 68.328 45.3946C68.325 43.6372 66.9075 42.2195 65.1382 42.1983L68.5461 42.1975C70.3138 42.1933 71.741 40.783 71.7379 39.0256C71.7604 37.2667 70.3429 35.8489 68.5751 35.8532Z" fill="url(#paint0_linear_605_12341)"/>
<path d="M65.4029 49.1365C65.3263 49.1411 65.2497 49.1457 65.1731 49.1503L36.6784 49.129C36.3705 49.1221 36.1254 48.882 36.1071 48.5775L36.1414 25.6758C36.1353 25.5742 36.1803 25.4697 36.2268 25.3904L41.2993 17.2659L42.4083 12.6907C42.4426 10.7018 44.1144 9.09854 46.1645 9.10281C48.2402 9.10555 49.9268 10.7364 49.9195 12.7492L49.9123 13.0553C49.9065 16.8 49.4122 20.0902 48.3173 23.6202L56.6837 22.5574C56.7092 22.5559 56.7348 22.5544 56.7603 22.5528L66.3697 22.5618C68.4454 22.5645 70.1095 24.2476 70.1308 26.3096C70.1407 27.3279 69.7104 28.2708 69.0336 28.9482C69.8838 29.0245 70.6756 29.41 71.3025 30.0347C72.0105 30.7308 72.4003 31.6754 72.4102 32.6937C72.4144 34.0435 71.69 35.2077 70.6287 35.8828C71.6941 36.5575 72.4056 37.7375 72.4082 39.0619C72.4166 40.0548 72.0119 40.9961 71.3111 41.7005C70.6103 42.4048 69.6599 42.793 68.6611 42.8021L67.9432 42.7942C68.6257 43.4919 69.0155 44.4365 69.0238 45.4294C69.0322 46.4223 68.6275 47.3636 67.9267 48.068C67.1703 48.6993 66.2965 49.0829 65.4029 49.1365ZM37.2256 48.0009L65.1571 48.0305C65.8495 48.0399 66.5251 47.77 67.0068 47.2572C67.5156 46.7681 67.7823 46.0898 67.7922 45.4015C67.8006 44.6877 67.5312 44.0416 67.0141 43.5378C66.5225 43.0324 65.866 42.7661 65.148 42.7583C64.8401 42.7513 64.5951 42.5113 64.5768 42.2067C64.5841 41.9006 64.8257 41.6568 65.1321 41.6384L68.54 41.6376C69.2324 41.647 69.908 41.3772 70.3897 40.8643C70.8984 40.3752 71.1667 39.7223 71.1751 39.0086C71.1648 37.5573 69.9923 36.3795 68.5579 36.3892C68.25 36.3822 68.0065 36.1676 67.9883 35.863L67.9867 35.8377C67.994 35.5316 68.2356 35.2878 68.542 35.2694C69.9778 35.2851 71.1618 34.0932 71.1771 32.6404C71.1855 31.9266 70.9161 31.2805 70.399 30.7767C69.9074 30.2713 69.2508 30.005 68.5329 29.9972L66.2785 30.0052C65.9706 29.9982 65.7256 29.7582 65.7073 29.4536C65.7145 29.1475 65.9561 28.9037 66.2625 28.8853C67.6968 28.8756 68.8824 27.7091 68.8976 26.2563C68.8874 24.805 67.7148 23.6272 66.2805 23.637L56.6966 23.6265L47.4923 24.8159C47.3136 24.8267 47.1048 24.7628 46.9935 24.6166C46.8822 24.4705 46.8445 24.269 46.8849 24.0882C48.1478 20.3699 48.7111 16.9482 48.7062 13.0258L48.7134 12.7197C48.7062 11.3191 47.5367 10.1922 46.1009 10.1765C44.641 10.1877 43.478 11.3019 43.4596 12.704C43.4627 12.7547 43.4642 12.7801 43.4417 12.8324L42.2908 17.563C42.2683 17.6153 42.2459 17.6675 42.2234 17.7198L37.1974 25.7652L37.2256 48.0009Z" fill="#191A1D"/>
<path d="M25.8998 25.6713L25.8633 48.555L33.3827 48.5616L33.4193 25.6778L25.8998 25.6713Z" fill="url(#paint1_linear_605_12341)"/>
<path d="M33.4237 49.1207L33.3982 49.1222L25.89 49.1145C25.5821 49.1075 25.3371 48.8675 25.3188 48.5629L25.3531 25.6612C25.3439 25.5089 25.4129 25.3774 25.5089 25.2698C25.605 25.1621 25.7551 25.1022 25.9098 25.1183L33.418 25.1261C33.7259 25.133 33.9709 25.373 33.9892 25.6776L33.9549 48.5793C33.9641 48.7316 33.8951 48.8631 33.7991 48.9708C33.676 49.0546 33.5514 49.113 33.4237 49.1207ZM26.4372 47.9863L32.8175 47.9853L32.8422 26.205L26.462 26.206L26.4372 47.9863Z" fill="#191A1D"/>
</g>
<defs>
<linearGradient id="paint0_linear_605_12341" x1="35.5465" y1="30.3091" x2="71.0214" y2="26.9616" gradientUnits="userSpaceOnUse">
<stop stop-color="#FB7D20"/>
<stop offset="1" stop-color="#FA2527"/>
</linearGradient>
<linearGradient id="paint1_linear_605_12341" x1="29.623" y1="48.5583" x2="27.0641" y2="26.2038" gradientUnits="userSpaceOnUse">
<stop stop-color="#FB7D20"/>
<stop offset="1" stop-color="#FA2527"/>
</linearGradient>
<clipPath id="clip0_605_12341">
<rect width="93" height="81" fill="white" transform="translate(0 0.5)"/>
</clipPath>
</defs>
</svg>
