<svg width="23" height="22" viewBox="0 0 23 22" fill="none" xmlns="http://www.w3.org/2000/svg">
<path d="M2.70541 7.98576H6.57307V19.6248H2.70541V7.98576ZM4.66513 2.37524C3.34139 2.37524 2.47656 3.24429 2.47656 4.38494C2.47656 5.50212 3.31609 6.39643 4.61452 6.39643H4.63918C5.98823 6.39643 6.82835 5.50208 6.82835 4.38494C6.80304 3.24429 5.98827 2.37524 4.66513 2.37524ZM16.0693 7.71235C14.0162 7.71235 13.0965 8.84157 12.5834 9.63348V7.98576H8.71459C8.76581 9.07764 8.71459 19.6248 8.71459 19.6248H12.5834V13.1247C12.5834 12.7766 12.6087 12.4298 12.7105 12.1804C12.9906 11.4854 13.6272 10.7657 14.6949 10.7657C16.0958 10.7657 16.6552 11.8335 16.6552 13.3975V19.6247H20.5234V12.9507C20.5234 9.37576 18.6155 7.71235 16.0693 7.71235Z" fill="white"/>
</svg>
