<svg width="192" height="192" viewBox="0 0 192 192" fill="none" xmlns="http://www.w3.org/2000/svg">
<rect width="192" height="192" fill="#191A1D"/>
<path d="M96.0001 111.876L80.2636 95.8359L66.4941 110.094L82.0121 125.911H82.4492L96.0001 111.876Z" fill="white"/>
<path d="M50.7575 65.7617H23L52.506 95.8369L66.494 81.8018L50.7575 65.7617Z" fill="white"/>
<path d="M109.965 65.7552L96.0557 79.9326L111.819 96.0004L125.728 81.8229L109.965 65.7552Z" fill="white"/>
<path d="M141.023 125.911H168.78L139.493 95.8359L125.724 110.094L141.023 125.911Z" fill="white"/>
<path d="M109.987 65.7598H82.2297L66.4932 81.7999L52.5052 95.8349L23.2178 125.91H50.9752L66.4932 110.093L80.2626 95.8349L95.9991 79.7948L109.987 65.7598Z" fill="#FA2527"/>
<path d="M141.461 65.7598L125.725 81.7999L111.737 95.8349L96.0001 111.875L82.4492 125.91H109.551H110.207L125.725 110.093L139.494 95.8349L169 65.7598H141.461Z" fill="#FB7D20"/>
</svg>
