<svg class="logo-white" width="72" height="51" viewBox="0 0 72 51" fill="none" xmlns="http://www.w3.org/2000/svg">
<path class="change-color" d="M36 22.7447L28.2396 14.8346L21.4492 21.8658L29.1019 29.6661H29.3174L36 22.7447Z" fill="white"/>
<path class="change-color" d="M13.6885 0.00338936H0L14.5508 14.8349L21.449 7.91353L13.6885 0.00338936Z" fill="white"/>
<path class="change-color" d="M42.8866 -2.58961e-06L36.0273 6.99157L43.8012 14.9153L50.6604 7.92378L42.8866 -2.58961e-06Z" fill="white"/>
<path class="change-color" d="M58.2031 29.6661H71.8916L57.4486 14.8346L50.6582 21.8658L58.2031 29.6661Z" fill="white"/>
<path d="M42.8976 0.00304794H29.209L21.4486 7.91319L14.5505 14.8346L0.107422 29.6661H13.796L21.4486 21.8658L28.239 14.8346L35.9994 6.92442L42.8976 0.00304794Z" fill="#FA2527"/>
<path d="M58.418 0.00304794L50.6576 7.91319L43.7594 14.8346L35.999 22.7447L29.3164 29.6661H42.6816H43.005L50.6576 21.8658L57.448 14.8346L71.9988 0.00304794H58.418Z" fill="#FB7D20"/>
<g clip-path="url(#clip0_605_10808)">
<path class="change-color" d="M32.5388 41.101H28.9315L26.7453 43.7172L24.4862 41.101H20.9153L24.9234 45.7677L20.8789 50.6465H24.4862L26.7453 47.7475L28.9315 50.6465H32.5753L28.5307 45.7677L32.5388 41.101Z" fill="white"/>
<path class="change-color" d="M41.3198 45.7677L45.3279 41.101H41.7206L39.5344 43.7172L37.3117 41.101H33.7044L37.7125 45.7677L33.668 50.6465H37.3117L39.5344 47.7475L41.7206 50.6465H45.3643L41.3198 45.7677Z" fill="white"/>
<path class="change-color" d="M49.846 37.2475C49.5545 37.0707 49.263 37 48.8986 37C48.3885 37 47.9148 37.1768 47.5505 37.5303C47.1861 37.8838 47.0039 38.3081 47.0039 38.803C47.0039 39.2626 47.1861 39.6869 47.5505 40.0404C47.9148 40.3939 48.3521 40.6061 48.8986 40.6061C49.2266 40.6061 49.5545 40.5354 49.846 40.3586C50.1011 40.1818 50.3561 39.9697 50.5019 39.7222C50.6841 39.4394 50.7569 39.1566 50.7569 38.8384C50.7569 38.5202 50.6841 38.202 50.5019 37.9192C50.3561 37.6364 50.1011 37.4242 49.846 37.2475Z" fill="white"/>
<path class="change-color" d="M46.2754 43.7879H47.66V50.7525H50.5021V41.2071H46.2754V43.7879Z" fill="white"/>
<path class="change-color" d="M60.5574 42.4798C60.0837 42.0202 59.5371 41.6667 58.9177 41.4192C58.2983 41.1717 57.606 41.0303 56.8772 41.0303C56.1485 41.0303 55.4562 41.1717 54.8367 41.4192C54.2173 41.6667 53.6707 42.0556 53.1971 42.4798C52.7234 42.9394 52.359 43.4697 52.1039 44.0707C51.8489 44.6717 51.7031 45.3081 51.7031 45.9798C51.7031 46.6515 51.8489 47.3232 52.1039 47.9242C52.359 48.5253 52.7234 49.0556 53.1971 49.5152C53.6707 49.9747 54.2173 50.3283 54.8367 50.5758C55.4562 50.8232 56.1485 50.9646 56.8772 50.9646C57.606 50.9646 58.2618 50.8232 58.9177 50.5758C59.5371 50.3283 60.0837 49.9747 60.5574 49.5152C61.0311 49.0556 61.3954 48.5253 61.6505 47.9242C61.9056 47.3232 62.0513 46.6869 62.0513 45.9798C62.0513 45.3081 61.9056 44.6717 61.6505 44.0707C61.3954 43.4697 61.0311 42.9394 60.5574 42.4798ZM59.1363 46.0152C59.1363 46.4747 59.027 46.8283 58.8448 47.1818C58.6626 47.5354 58.4076 47.7828 58.0432 47.995C57.7153 48.2071 57.3145 48.2778 56.8772 48.2778C56.44 48.2778 56.0756 48.1717 55.7112 47.995C55.3833 47.7828 55.1282 47.5354 54.9096 47.1818C54.7274 46.8283 54.6181 46.4394 54.6181 46.0152C54.6181 45.5556 54.7274 45.1667 54.9096 44.8131C55.0918 44.4596 55.3468 44.2121 55.7112 44C56.0392 43.7879 56.44 43.7172 56.8772 43.7172C57.3145 43.7172 57.7153 43.8232 58.0432 44C58.3711 44.2121 58.6262 44.4596 58.8448 44.8131C59.0635 45.1667 59.1363 45.5556 59.1363 46.0152Z" fill="white"/>
<path class="change-color" d="M71.5264 42.8333C71.1985 42.2323 70.7248 41.7727 70.1418 41.4545C69.5588 41.1717 68.9394 40.9949 68.2835 40.9949C67.8098 40.9949 67.3726 41.101 66.9353 41.2778C66.6074 41.4192 66.3159 41.5606 66.0609 41.7727V41.2071H63.2188V50.7525H66.0609V44.8838C66.3159 44.601 66.6074 44.3182 66.9353 44.0707C67.2633 43.8232 67.5548 43.7172 67.8827 43.7172C68.3564 43.7172 68.6479 43.8232 68.8665 44.0354C69.0851 44.2828 69.1945 44.6717 69.1945 45.202V50.7172H72.0366V45.0253C72.0001 44.1768 71.8544 43.4343 71.5264 42.8333Z" fill="white"/>
<path class="change-color" d="M19.0569 37.2475C18.7655 37.0707 18.4375 37 18.1096 37C17.5995 37 17.1258 37.1768 16.7614 37.5303C16.397 37.8838 16.2148 38.3081 16.2148 38.803C16.2148 39.2626 16.397 39.6869 16.7614 40.0404C17.1258 40.3939 17.563 40.6061 18.1096 40.6061C18.4375 40.6061 18.7655 40.5354 19.0569 40.3586C19.312 40.1818 19.5306 39.9697 19.7128 39.6869C19.895 39.404 19.9679 39.1212 19.9679 38.803C19.9679 38.4848 19.895 38.1667 19.7128 37.8838C19.5306 37.6364 19.312 37.4242 19.0569 37.2475Z" fill="white"/>
<path class="change-color" d="M15.4844 43.7879H16.869V50.7525H19.7111V41.2071H15.4844V43.7879Z" fill="white"/>
<path class="change-color" d="M3.1336 37.6717C2.58704 37.9545 2.1498 38.3434 1.8583 38.8737C1.53036 39.404 1.38462 40.0404 1.38462 40.8182V41.2424H0V43.8232H1.34818V50.7879H4.19028V43.7525H6.63158V41.1717H4.19028V40.8889C4.19028 40.3586 4.2996 40.1465 4.40891 40.0758C4.48178 40.0051 4.66397 39.8636 4.9919 39.8636C5.17409 39.8636 6.01215 39.8636 6.30364 39.8636H6.8502V37.2828H4.95547C4.33603 37.2828 3.60729 37.4242 3.1336 37.6717Z" fill="white"/>
<path class="change-color" d="M10.7484 41.702V41.2071H7.90625V50.7525H10.7484V46.404C10.7484 45.697 10.8941 45.0606 11.1492 44.601C11.4042 44.1061 11.9508 43.8232 12.5338 43.8232H14.2099V41.2424H11.9143C11.4771 41.2424 11.0763 41.4192 10.7484 41.702Z" fill="white"/>
</g>
<defs>
<clipPath id="clip0_605_10808">
<rect width="72" height="14" fill="white" transform="translate(0 37)"/>
</clipPath>
</defs>
</svg>
